<svg xmlns="http://www.w3.org/2000/svg" width="230" height="40" fill="none" viewBox="0 0 230 40"><path fill="#ff5722" fill-rule="evenodd" d="M21.701 9.275a9.84 9.84 0 0 0-6.943 2.867 9.8 9.8 0 0 0-2.808 5.776c-.083.7-.467 1.347-1.098 1.662l-1.867.931c-.632.315-1.046.962-.963 1.663a9.77 9.77 0 0 0 2.808 5.775 9.82 9.82 0 0 0 6.944 2.868 9.84 9.84 0 0 0 6.943-2.868 9.8 9.8 0 0 0 2.808-5.776c.083-.7.467-1.347 1.098-1.662l1.867-.93c.631-.316 1.046-.963.963-1.663a9.76 9.76 0 0 0-2.808-5.775A9.82 9.82 0 0 0 21.7 9.275m4.536 7.918q.15.358.239.733c.165.686-.264 1.34-.895 1.654l-1.867.931c-.632.315-1.001.969-1.166 1.655a4.9 4.9 0 0 1-1.303 2.32 4.9 4.9 0 0 1-3.471 1.435 4.92 4.92 0 0 1-3.472-1.434 4.9 4.9 0 0 1-1.303-2.321c-.165-.686.264-1.34.895-1.655l1.867-.93c.632-.316 1.001-.97 1.166-1.655a4.9 4.9 0 0 1 2.895-3.383 4.92 4.92 0 0 1 5.35 1.062c.457.454.818.994 1.065 1.588" clip-rule="evenodd"/><path fill="#ff5722" fill-rule="evenodd" d="M21.701 1.441c-2.32 0-4.62.456-6.764 1.342a17.7 17.7 0 0 0-5.733 3.82 17.62 17.62 0 0 0-5.14 11.313c-.046.704-.436 1.35-1.067 1.664l-1.868.931c-.63.315-1.038.96-.992 1.664a17.59 17.59 0 0 0 5.139 11.313 17.716 17.716 0 0 0 24.995 0 17.586 17.586 0 0 0 5.139-11.313c.046-.704.437-1.35 1.068-1.664l1.867-.93c.632-.316 1.04-.961.993-1.665a17.59 17.59 0 0 0-5.14-11.313 17.7 17.7 0 0 0-5.733-3.82 17.7 17.7 0 0 0-6.764-1.342m8.785 20.734c.064-.703.451-1.35 1.083-1.664l1.867-.93c.631-.316 1.042-.962.978-1.664a12.7 12.7 0 0 0-3.687-7.852 12.77 12.77 0 0 0-9.026-3.728 12.8 12.8 0 0 0-9.026 3.728 12.73 12.73 0 0 0-3.686 7.852c-.064.702-.452 1.348-1.083 1.663l-1.867.931c-.631.315-1.042.961-.978 1.663a12.7 12.7 0 0 0 3.686 7.852 12.77 12.77 0 0 0 9.026 3.728 12.8 12.8 0 0 0 9.027-3.728 12.73 12.73 0 0 0 3.686-7.852" clip-rule="evenodd"/><path fill="#b92b09" d="M39.37 18.668h-4.91a.67.67 0 0 1-.376.589l-3.164 1.578a.71.71 0 0 0-.387.589h4.911a.7.7 0 0 1 .386-.59l3.164-1.577a.67.67 0 0 0 .377-.59M.104 21.424h4.911a.67.67 0 0 1 .375-.59l3.165-1.577a.71.71 0 0 0 .387-.59H4.03a.7.7 0 0 1-.386.59L.481 20.835a.67.67 0 0 0-.377.589M11.89 18.668a.72.72 0 0 1-.39.589l-3.164 1.578a.66.66 0 0 0-.373.589h4.918a.64.64 0 0 1 .365-.59l3.164-1.577a.75.75 0 0 0 .398-.59zM26.594 18.668a.64.64 0 0 1-.365.589l-3.164 1.578a.75.75 0 0 0-.398.589h4.918a.72.72 0 0 1 .39-.59l3.164-1.577a.66.66 0 0 0 .373-.59z"/><path fill="#fff" d="M57.776 27.812q-1.56 0-2.784-.312-1.224-.288-2.088-.912a4.5 4.5 0 0 1-1.296-1.56q-.456-.936-.48-2.184l2.688-.792q-.024 1.152.48 1.92.504.744 1.44 1.104.96.36 2.184.36 1.176 0 1.968-.288.816-.288 1.224-.768.408-.504.408-1.128 0-.696-.504-1.104-.504-.432-1.368-.696-.84-.288-1.92-.528a49 49 0 0 1-2.304-.576 8.8 8.8 0 0 1-2.016-.84 4.4 4.4 0 0 1-1.464-1.344q-.528-.84-.528-2.112 0-1.44.72-2.472.72-1.056 2.088-1.632 1.392-.6 3.312-.6 1.896 0 3.312.576 1.416.552 2.208 1.632t.84 2.544l-2.76.768q0-.792-.264-1.368-.24-.6-.72-.984a3.04 3.04 0 0 0-1.152-.6 5.3 5.3 0 0 0-1.488-.192q-.984 0-1.728.264-.72.264-1.104.744a1.62 1.62 0 0 0-.384 1.08q0 .768.576 1.224t1.512.744q.96.264 2.088.528 1.032.216 2.064.528 1.056.312 1.944.816a3.9 3.9 0 0 1 1.416 1.368q.552.84.552 2.136 0 1.392-.744 2.448t-2.232 1.632-3.696.576m12.071 0q-1.032 0-1.848-.384a3.1 3.1 0 0 1-1.296-1.2q-.456-.792-.456-1.968 0-.984.36-1.68.384-.696 1.128-1.128.744-.456 1.848-.744 1.104-.312 2.592-.528.816-.12 1.32-.24.528-.12.768-.36.24-.264.24-.768 0-.744-.528-1.272-.504-.552-1.656-.552-.696 0-1.344.24-.624.24-1.08.768-.456.504-.624 1.344l-2.712-.84q.264-.96.768-1.656.504-.72 1.248-1.224a5.3 5.3 0 0 1 1.704-.744q.96-.24 2.112-.24 1.752 0 2.88.576 1.128.552 1.68 1.752.552 1.176.552 3.048v2.352q0 .816.024 1.704l.096 1.752q.072.864.168 1.68H75.08q-.096-.672-.168-1.44a48 48 0 0 1-.12-1.56h-.384a5.9 5.9 0 0 1-.96 1.68 4.75 4.75 0 0 1-1.536 1.2q-.888.432-2.064.432m1.2-2.232q.48 0 .96-.168.504-.168.984-.504t.888-.816q.408-.504.696-1.176l-.048-2.136.576.096a3 3 0 0 1-1.008.528q-.6.192-1.272.288-.648.096-1.32.24-.648.12-1.176.336-.528.192-.84.576-.312.36-.312 1.008 0 .816.528 1.272t1.344.456m11.977 1.92-4.296-12.528h3.36l2.904 10.104h.36l2.904-10.104h3.264L87.2 27.5zm10.202 0V14.948h3.024V27.5zm1.512-14.52q-.912 0-1.416-.384-.48-.408-.48-1.152t.48-1.128q.504-.408 1.416-.408.96 0 1.44.384t.48 1.152q0 .744-.504 1.152-.48.384-1.416.384m4.61 14.52V14.948h2.52l-.072 3.84h.432q.336-1.416.888-2.328.576-.912 1.464-1.368t2.064-.456q2.136 0 3.24 1.512 1.128 1.512 1.128 4.68V27.5h-3.048v-6.36q0-2.04-.624-2.976-.6-.96-1.8-.96-1.008 0-1.704.648-.696.624-1.08 1.68a7.3 7.3 0 0 0-.384 2.28V27.5zm19.431 4.32q-2.04 0-3.36-.312-1.296-.312-1.92-.936t-.624-1.536q0-1.104.864-1.8.888-.72 2.616-.888v-.48q-1.296.024-1.968-.264-.672-.312-.672-.984 0-.648.648-1.152.672-.504 2.208-.84v-.48q-1.464-.072-2.28-.912-.816-.864-.816-2.232 0-1.224.672-2.16t1.968-1.464q1.32-.552 3.192-.552h6.216v2.4l-3.936-.576v.528q1.488.24 2.184.84.72.6.72 1.632 0 .984-.624 1.752-.624.744-1.824 1.176-1.176.408-2.856.408-.312 0-.672-.024a22 22 0 0 1-1.128-.12q-.504.36-.816.648-.312.264-.312.504 0 .192.24.336.24.12.624.168a6 6 0 0 0 .744.048h3.336q.48 0 1.224.072a5.1 5.1 0 0 1 1.512.384q.768.312 1.272.984.528.672.528 1.896 0 1.368-.792 2.232-.768.888-2.328 1.296-1.536.408-3.84.408m.264-2.448q1.488 0 2.376-.168t1.272-.552q.384-.36.384-.936 0-.528-.24-.816a1.23 1.23 0 0 0-.624-.432 3 3 0 0 0-.744-.144 11 11 0 0 0-.648-.024h-2.952q-1.152.168-1.632.648-.456.48-.456 1.056t.384.864q.384.312 1.104.408.744.096 1.776.096m.072-8.04q1.248 0 1.896-.576.648-.6.648-1.56 0-1.032-.672-1.68-.648-.672-1.896-.672t-1.944.648q-.672.648-.672 1.656 0 .648.288 1.152.312.48.888.768.6.264 1.464.264m13.638 6.48q-1.272 0-2.304-.264-1.008-.24-1.728-.696a4.1 4.1 0 0 1-1.152-1.128 3.46 3.46 0 0 1-.528-1.488l2.376-.888q.048.624.48 1.128.432.48 1.2.768t1.848.288q1.2 0 1.848-.36.672-.384.672-1.08 0-.504-.36-.792-.36-.312-1.056-.504-.672-.216-1.632-.408a42 42 0 0 1-1.8-.432 9 9 0 0 1-1.656-.672 3.9 3.9 0 0 1-1.224-1.104q-.456-.696-.456-1.752 0-1.152.6-1.992.624-.84 1.776-1.32 1.176-.48 2.832-.48 1.56 0 2.688.432 1.152.432 1.872 1.248.72.792.912 1.896l-2.496.792q-.072-.672-.456-1.128-.384-.48-1.032-.72t-1.512-.24q-1.104 0-1.728.384t-.624 1.032q0 .528.384.84.408.312 1.104.504.72.192 1.632.384.96.192 1.848.456.912.24 1.632.648t1.152 1.08q.432.648.432 1.68 0 1.248-.672 2.136-.672.864-1.92 1.32-1.224.432-2.952.432m16.688-.312V11.66h3.048V27.5zm-4.704-13.272V11.66h12.48v2.568zM158.504 27.5V14.948h2.544l-.048 4.32h.432q.216-1.536.672-2.544.456-1.032 1.272-1.536.816-.528 2.016-.528.24 0 .504.024.288.024.624.12l-.12 3.192a3.4 3.4 0 0 0-.792-.192 4 4 0 0 0-.72-.072q-.936 0-1.632.48-.672.48-1.104 1.368-.408.864-.624 2.064V27.5zm12.542.312q-1.032 0-1.848-.384a3.1 3.1 0 0 1-1.296-1.2q-.456-.792-.456-1.968 0-.984.36-1.68.384-.696 1.128-1.128.744-.456 1.848-.744 1.104-.312 2.592-.528.816-.12 1.32-.24.528-.12.768-.36.24-.264.24-.768 0-.744-.528-1.272-.504-.552-1.656-.552-.696 0-1.344.24-.624.24-1.08.768-.456.504-.624 1.344l-2.712-.84q.264-.96.768-1.656.504-.72 1.248-1.224a5.3 5.3 0 0 1 1.704-.744q.96-.24 2.112-.24 1.752 0 2.88.576 1.128.552 1.68 1.752.552 1.176.552 3.048v2.352q0 .816.024 1.704l.096 1.752q.072.864.168 1.68h-2.712q-.096-.672-.168-1.44a48 48 0 0 1-.12-1.56h-.384a5.9 5.9 0 0 1-.96 1.68 4.75 4.75 0 0 1-1.536 1.2q-.888.432-2.064.432m1.2-2.232q.48 0 .96-.168.504-.168.984-.504t.888-.816q.408-.504.696-1.176l-.048-2.136.576.096a3 3 0 0 1-1.008.528q-.6.192-1.272.288-.648.096-1.32.24-.648.12-1.176.336-.528.192-.84.576-.312.36-.312 1.008 0 .816.528 1.272t1.344.456m15.064 2.232q-1.632 0-2.832-.48a5.4 5.4 0 0 1-1.968-1.344 5.9 5.9 0 0 1-1.152-2.064 8.2 8.2 0 0 1-.384-2.544q0-1.464.384-2.688a6.2 6.2 0 0 1 1.2-2.136 5.4 5.4 0 0 1 1.944-1.416q1.176-.504 2.688-.504t2.616.504q1.128.504 1.824 1.416.696.888.936 2.088l-2.832.888a2.76 2.76 0 0 0-.384-1.272 2.3 2.3 0 0 0-.912-.888q-.576-.312-1.368-.312-.768 0-1.344.312a2.6 2.6 0 0 0-.936.84q-.36.552-.576 1.344a7.1 7.1 0 0 0-.192 1.728q0 1.32.36 2.256t1.104 1.464q.744.504 1.848.504.984 0 1.584-.36.624-.384.936-.984.336-.6.408-1.32l2.688.6a5.6 5.6 0 0 1-.552 1.776 4.5 4.5 0 0 1-1.128 1.392q-.696.576-1.68.888t-2.28.312m7.489-.312V10.436h2.976v9.576a15 15 0 0 0 1.56-1.104q.744-.624 1.368-1.296t1.104-1.344q.48-.696.792-1.32h3.48a10 10 0 0 1-2.472 3.528 9.3 9.3 0 0 1-1.848 1.344 7.5 7.5 0 0 1-2.208.768v.336q1.488-.216 2.496.144t1.704 1.08 1.152 1.68q.48.936.888 1.92l.624 1.752h-3.336l-.384-1.152q-.456-1.2-.96-2.112-.48-.936-1.224-1.44-.72-.528-1.872-.528h-.864V27.5zm18.888.312q-1.512 0-2.712-.432a5.4 5.4 0 0 1-1.992-1.248 5.65 5.65 0 0 1-1.248-2.016q-.432-1.176-.432-2.664t.408-2.736a6.5 6.5 0 0 1 1.224-2.16 5.46 5.46 0 0 1 1.92-1.416q1.152-.504 2.616-.504 1.368 0 2.448.456a4.66 4.66 0 0 1 1.824 1.368q.744.888 1.104 2.232.36 1.32.24 3.072l-9.816.072v-1.752l8.064-.072-1.056.984q.144-1.368-.216-2.232-.36-.888-1.032-1.296a2.8 2.8 0 0 0-1.536-.432q-.984 0-1.728.528-.744.504-1.152 1.488-.384.96-.384 2.352 0 2.088.912 3.12.936 1.032 2.544 1.032.72 0 1.2-.168.504-.192.84-.48.336-.312.528-.696a3.7 3.7 0 0 0 .336-.816l2.64.6a5 5 0 0 1-.624 1.584 4.2 4.2 0 0 1-1.128 1.2 4.8 4.8 0 0 1-1.608.768q-.936.264-2.184.264m7.864-.312V14.948h2.544l-.048 4.32h.432q.216-1.536.672-2.544.456-1.032 1.272-1.536.816-.528 2.016-.528.24 0 .504.024.288.024.624.12l-.12 3.192a3.4 3.4 0 0 0-.792-.192 4 4 0 0 0-.72-.072q-.936 0-1.632.48-.672.48-1.104 1.368-.408.864-.624 2.064V27.5z"/></svg>